<svg width="1280" height="420" viewBox="0 0 1280 420" fill="none" xmlns="http://www.w3.org/2000/svg">
  <defs>
    <linearGradient id="bg" x1="0" y1="0" x2="1280" y2="420" gradientUnits="userSpaceOnUse">
      <stop offset="0" stop-color="#020617"/>
      <stop offset="0.5" stop-color="#0B1220"/>
      <stop offset="1" stop-color="#0F172A"/>
    </linearGradient>
    <linearGradient id="accent" x1="150" y1="48" x2="1080" y2="372" gradientUnits="userSpaceOnUse">
      <stop offset="0" stop-color="#22D3EE"/>
      <stop offset="0.5" stop-color="#38BDF8"/>
      <stop offset="1" stop-color="#14B8A6"/>
    </linearGradient>
    <linearGradient id="soft" x1="0" y1="0" x2="1" y2="1">
      <stop offset="0" stop-color="#1E293B" stop-opacity="0.65"/>
      <stop offset="1" stop-color="#0F172A" stop-opacity="0.08"/>
    </linearGradient>
  </defs>

  <rect width="1280" height="420" rx="28" fill="url(#bg)"/>
  <rect x="38" y="38" width="1204" height="344" rx="22" fill="url(#soft)" stroke="#1E293B"/>

  <g opacity="0.32">
    <path d="M120 72V348" stroke="#334155"/>
    <path d="M240 72V348" stroke="#334155"/>
    <path d="M360 72V348" stroke="#334155"/>
    <path d="M480 72V348" stroke="#334155"/>
    <path d="M600 72V348" stroke="#334155"/>
    <path d="M720 72V348" stroke="#334155"/>
    <path d="M840 72V348" stroke="#334155"/>
    <path d="M960 72V348" stroke="#334155"/>
    <path d="M1080 72V348" stroke="#334155"/>
    <path d="M72 110H1208" stroke="#334155"/>
    <path d="M72 170H1208" stroke="#334155"/>
    <path d="M72 230H1208" stroke="#334155"/>
    <path d="M72 290H1208" stroke="#334155"/>
  </g>

  <g opacity="0.9">
    <path d="M94 265C139 244 174 256 215 235C257 213 281 157 338 154C387 151 413 208 458 211C511 215 539 160 593 158C646 156 667 211 718 218C760 224 788 200 828 181C871 160 905 161 947 171C988 181 1024 209 1071 198C1112 188 1147 141 1186 123" stroke="url(#accent)" stroke-width="5" stroke-linecap="round"/>
    <path d="M94 295C141 283 172 301 214 279C262 253 295 189 346 192C389 194 421 250 463 251C519 253 546 188 599 189C649 190 683 245 730 251C773 256 804 238 846 225C889 212 925 212 968 225C1008 236 1045 258 1086 249C1125 240 1157 204 1187 188" stroke="#0F766E" stroke-width="2.5" stroke-linecap="round" stroke-dasharray="6 8"/>
  </g>

  <g opacity="0.95">
    <rect x="822" y="93" width="10" height="52" rx="5" fill="#22D3EE"/>
    <rect x="857" y="118" width="10" height="34" rx="5" fill="#22D3EE"/>
    <rect x="892" y="105" width="10" height="70" rx="5" fill="#38BDF8"/>
    <rect x="927" y="134" width="10" height="41" rx="5" fill="#14B8A6"/>
    <rect x="962" y="126" width="10" height="58" rx="5" fill="#22D3EE"/>
    <rect x="997" y="146" width="10" height="28" rx="5" fill="#38BDF8"/>
    <rect x="1032" y="114" width="10" height="74" rx="5" fill="#14B8A6"/>
    <rect x="1067" y="95" width="10" height="96" rx="5" fill="#22D3EE"/>
    <path d="M827 82V156" stroke="#475569"/>
    <path d="M862 100V168" stroke="#475569"/>
    <path d="M897 88V188" stroke="#475569"/>
    <path d="M932 120V188" stroke="#475569"/>
    <path d="M967 111V197" stroke="#475569"/>
    <path d="M1002 134V184" stroke="#475569"/>
    <path d="M1037 95V203" stroke="#475569"/>
    <path d="M1072 82V209" stroke="#475569"/>
  </g>

  <g opacity="0.65">
    <circle cx="149" cy="104" r="5" fill="#22D3EE"/>
    <circle cx="344" cy="154" r="5" fill="#22D3EE"/>
    <circle cx="595" cy="158" r="5" fill="#38BDF8"/>
    <circle cx="828" cy="181" r="5" fill="#14B8A6"/>
    <circle cx="1186" cy="123" r="5" fill="#22D3EE"/>
  </g>

  <rect x="86" y="87" width="142" height="30" rx="15" fill="#082F49" stroke="#0EA5E9"/>
  <text x="111" y="108" fill="#7DD3FC" font-family="SFMono-Regular, Menlo, Consolas, monospace" font-size="14" letter-spacing="1.2">LIVE RESEARCH</text>

  <text x="84" y="174" fill="#F8FAFC" font-family="Arial, Helvetica, sans-serif" font-size="62" font-weight="700">YOUNGGY</text>
  <text x="84" y="224" fill="#94A3B8" font-family="Arial, Helvetica, sans-serif" font-size="24">Quant Research  /  Trading Infra  /  Data Pipelines</text>
  <text x="84" y="276" fill="#CBD5E1" font-family="Arial, Helvetica, sans-serif" font-size="21">Building signal-driven systems from raw market structure to usable strategy data.</text>
  <text x="84" y="320" fill="#14B8A6" font-family="SFMono-Regular, Menlo, Consolas, monospace" font-size="18">orderbook.alpha  ::  polymarket.flow  ::  onchain.metrics  ::  reproducible.etl</text>

  <g opacity="0.7">
    <rect x="84" y="341" width="108" height="4" rx="2" fill="#22D3EE"/>
    <rect x="200" y="341" width="74" height="4" rx="2" fill="#14B8A6"/>
    <rect x="282" y="341" width="124" height="4" rx="2" fill="#38BDF8"/>
  </g>
</svg>
